<mxfile host="app.diagrams.net" modified="2024-06-09T11:26:27.535Z" agent="Mozilla/5.0 (Macintosh; Intel Mac OS X 10_15_7) AppleWebKit/605.1.15 (KHTML, like Gecko) Version/16.6 Safari/605.1.15" etag="sUjSL3-fmFxgD-U1lWQr" version="24.5.2" type="github">
  <diagram name="Pagina-1" id="_L2Ee9LEgfNnoTlEI1K6">
    <mxGraphModel dx="454" dy="326" grid="1" gridSize="10" guides="1" tooltips="1" connect="1" arrows="1" fold="1" page="1" pageScale="1" pageWidth="827" pageHeight="1169" background="none" math="0" shadow="0">
      <root>
        <mxCell id="0" />
        <mxCell id="1" parent="0" />
        <mxCell id="fcuhY72EvX0LanplAhfN-2" value="" style="whiteSpace=wrap;html=1;aspect=fixed;" parent="1" vertex="1">
          <mxGeometry x="280" y="160" width="200" height="200" as="geometry" />
        </mxCell>
        <mxCell id="fcuhY72EvX0LanplAhfN-3" value="" style="rounded=0;whiteSpace=wrap;html=1;fillColor=#f5f5f5;gradientColor=#b3b3b3;strokeColor=#666666;" parent="1" vertex="1">
          <mxGeometry x="280" y="160" width="200" height="10" as="geometry" />
        </mxCell>
        <mxCell id="fcuhY72EvX0LanplAhfN-6" value="" style="rounded=0;whiteSpace=wrap;html=1;fillColor=#f5f5f5;gradientColor=#b3b3b3;strokeColor=#666666;rotation=90;" parent="1" vertex="1">
          <mxGeometry x="195" y="255" width="180" height="10" as="geometry" />
        </mxCell>
        <mxCell id="fcuhY72EvX0LanplAhfN-7" value="" style="strokeWidth=2;html=1;shape=mxgraph.flowchart.annotation_2;align=left;labelPosition=right;pointerEvents=1;rotation=90;" parent="1" vertex="1">
          <mxGeometry x="395" y="165" width="20" height="30" as="geometry" />
        </mxCell>
        <mxCell id="fcuhY72EvX0LanplAhfN-9" value="" style="shape=mxgraph.pid.apparatus_elements.socket,_connection_nozzle;html=1;pointerEvents=1;align=center;verticalLabelPosition=bottom;verticalAlign=top;dashed=0;rotation=-90;strokeWidth=2;" parent="1" vertex="1">
          <mxGeometry x="390.91" y="190" width="28.18" height="20" as="geometry" />
        </mxCell>
        <mxCell id="fcuhY72EvX0LanplAhfN-10" value="" style="pointerEvents=1;verticalLabelPosition=bottom;shadow=0;dashed=0;align=center;html=1;verticalAlign=top;shape=mxgraph.electrical.resistors.resistor_2;rotation=90;strokeWidth=1;" parent="1" vertex="1">
          <mxGeometry x="339.62" y="174.38" width="29.75" height="20" as="geometry" />
        </mxCell>
        <mxCell id="fcuhY72EvX0LanplAhfN-12" value="" style="pointerEvents=1;verticalLabelPosition=bottom;shadow=0;dashed=0;align=center;html=1;verticalAlign=top;shape=mxgraph.electrical.resistors.resistor_2;rotation=-180;strokeWidth=1;" parent="1" vertex="1">
          <mxGeometry x="437" y="280" width="33" height="20" as="geometry" />
        </mxCell>
        <mxCell id="fcuhY72EvX0LanplAhfN-4" value="" style="rounded=0;whiteSpace=wrap;html=1;fillColor=#f5f5f5;gradientColor=#b3b3b3;strokeColor=#666666;rotation=90;" parent="1" vertex="1">
          <mxGeometry x="380" y="260" width="190" height="10" as="geometry" />
        </mxCell>
        <mxCell id="fcuhY72EvX0LanplAhfN-14" value="" style="shape=mxgraph.pid.apparatus_elements.socket,_connection_nozzle;html=1;pointerEvents=1;align=center;verticalLabelPosition=bottom;verticalAlign=top;dashed=0;rotation=0;strokeWidth=2;" parent="1" vertex="1">
          <mxGeometry x="440" y="240" width="10" height="20" as="geometry" />
        </mxCell>
        <mxCell id="fcuhY72EvX0LanplAhfN-15" value="" style="strokeWidth=2;html=1;shape=mxgraph.flowchart.annotation_2;align=left;labelPosition=right;pointerEvents=1;rotation=-180;" parent="1" vertex="1">
          <mxGeometry x="450" y="235" width="20" height="30" as="geometry" />
        </mxCell>
        <mxCell id="fcuhY72EvX0LanplAhfN-17" value="" style="pointerEvents=1;verticalLabelPosition=bottom;shadow=0;dashed=0;align=center;html=1;verticalAlign=top;shape=mxgraph.electrical.resistors.resistor_2;rotation=90;strokeWidth=1;" parent="1" vertex="1">
          <mxGeometry x="336.78" y="323.23" width="35.44" height="20" as="geometry" />
        </mxCell>
        <mxCell id="fcuhY72EvX0LanplAhfN-5" value="" style="rounded=0;whiteSpace=wrap;html=1;fillColor=#f5f5f5;gradientColor=#b3b3b3;strokeColor=#666666;rotation=-180;" parent="1" vertex="1">
          <mxGeometry x="280" y="350" width="190" height="10" as="geometry" />
        </mxCell>
        <mxCell id="fcuhY72EvX0LanplAhfN-19" value="" style="strokeWidth=2;html=1;shape=mxgraph.flowchart.annotation_2;align=left;labelPosition=right;pointerEvents=1;rotation=-90;" parent="1" vertex="1">
          <mxGeometry x="399.09" y="325.45" width="20" height="30" as="geometry" />
        </mxCell>
        <mxCell id="fcuhY72EvX0LanplAhfN-21" value="" style="shape=mxgraph.pid.apparatus_elements.socket,_connection_nozzle;html=1;pointerEvents=1;align=center;verticalLabelPosition=bottom;verticalAlign=top;dashed=0;rotation=90;strokeWidth=2;" parent="1" vertex="1">
          <mxGeometry x="402.5" y="317.5" width="13.18" height="20" as="geometry" />
        </mxCell>
        <mxCell id="fcuhY72EvX0LanplAhfN-22" value="" style="strokeWidth=2;html=1;shape=mxgraph.flowchart.annotation_2;align=left;labelPosition=right;pointerEvents=1;rotation=0;" parent="1" vertex="1">
          <mxGeometry x="290" y="230" width="20" height="30" as="geometry" />
        </mxCell>
        <mxCell id="fcuhY72EvX0LanplAhfN-23" value="" style="shape=mxgraph.pid.apparatus_elements.socket,_connection_nozzle;html=1;pointerEvents=1;align=center;verticalLabelPosition=bottom;verticalAlign=top;dashed=0;rotation=-180;strokeWidth=2;" parent="1" vertex="1">
          <mxGeometry x="308.6" y="235" width="13.98" height="20" as="geometry" />
        </mxCell>
        <mxCell id="fcuhY72EvX0LanplAhfN-25" value="" style="pointerEvents=1;verticalLabelPosition=bottom;shadow=0;dashed=0;align=center;html=1;verticalAlign=top;shape=mxgraph.electrical.resistors.resistor_2;rotation=0;strokeWidth=1;" parent="1" vertex="1">
          <mxGeometry x="290" y="280" width="30" height="20" as="geometry" />
        </mxCell>
        <mxCell id="fcuhY72EvX0LanplAhfN-1" value="" style="whiteSpace=wrap;html=1;aspect=fixed;fillColor=#1ba1e2;strokeColor=#006EAF;fontColor=#ffffff;" parent="1" vertex="1">
          <mxGeometry x="320" y="200" width="120" height="120" as="geometry" />
        </mxCell>
        <UserObject label="&lt;font style=&quot;font-size: 25px;&quot;&gt;M&lt;/font&gt;" placeholders="1" name="Variable" id="fcuhY72EvX0LanplAhfN-40">
          <mxCell style="text;html=1;strokeColor=none;fillColor=none;align=center;verticalAlign=middle;whiteSpace=wrap;overflow=hidden;" parent="1" vertex="1">
            <mxGeometry x="340" y="240" width="80" height="30" as="geometry" />
          </mxCell>
        </UserObject>
        <UserObject label="&lt;font style=&quot;font-size: 8px;&quot;&gt;b&lt;sub&gt;sense&lt;/sub&gt;&lt;/font&gt;" placeholders="1" name="Variable" id="fcuhY72EvX0LanplAhfN-41">
          <mxCell style="text;html=1;strokeColor=none;fillColor=none;align=center;verticalAlign=middle;whiteSpace=wrap;overflow=hidden;" parent="1" vertex="1">
            <mxGeometry x="420" y="170" width="30" height="20" as="geometry" />
          </mxCell>
        </UserObject>
        <UserObject label="&lt;span style=&quot;font-size: 8px;&quot;&gt;k&lt;sub&gt;sense&lt;/sub&gt;&lt;/span&gt;" placeholders="1" name="Variable" id="fcuhY72EvX0LanplAhfN-42">
          <mxCell style="text;html=1;strokeColor=none;fillColor=none;align=center;verticalAlign=middle;whiteSpace=wrap;overflow=hidden;" parent="1" vertex="1">
            <mxGeometry x="310" y="174.38" width="30" height="20" as="geometry" />
          </mxCell>
        </UserObject>
        <UserObject label="&lt;span style=&quot;font-size: 8px;&quot;&gt;b&lt;sub&gt;drive&lt;/sub&gt;&lt;/span&gt;" placeholders="1" name="Variable" id="fcuhY72EvX0LanplAhfN-43">
          <mxCell style="text;html=1;strokeColor=none;fillColor=none;align=center;verticalAlign=middle;whiteSpace=wrap;overflow=hidden;" parent="1" vertex="1">
            <mxGeometry x="440" y="210" width="30" height="20" as="geometry" />
          </mxCell>
        </UserObject>
        <UserObject label="&lt;span style=&quot;font-size: 8px;&quot;&gt;k&lt;sub&gt;drive&lt;/sub&gt;&lt;/span&gt;" placeholders="1" name="Variable" id="fcuhY72EvX0LanplAhfN-44">
          <mxCell style="text;html=1;strokeColor=none;fillColor=none;align=center;verticalAlign=middle;whiteSpace=wrap;overflow=hidden;" parent="1" vertex="1">
            <mxGeometry x="438.5" y="297.5" width="30" height="20" as="geometry" />
          </mxCell>
        </UserObject>
        <mxCell id="5pZcS1v5Iqv0BgUDrNm1-2" value="" style="ellipse;whiteSpace=wrap;html=1;aspect=fixed;fillColor=#000000;" parent="1" vertex="1">
          <mxGeometry x="220" y="350" width="20" height="20" as="geometry" />
        </mxCell>
        <mxCell id="5pZcS1v5Iqv0BgUDrNm1-3" value="" style="ellipse;whiteSpace=wrap;html=1;aspect=fixed;" parent="1" vertex="1">
          <mxGeometry x="225" y="355" width="10" height="10" as="geometry" />
        </mxCell>
        <mxCell id="5pZcS1v5Iqv0BgUDrNm1-7" value="" style="endArrow=classic;html=1;rounded=0;" parent="1" edge="1">
          <mxGeometry width="50" height="50" relative="1" as="geometry">
            <mxPoint x="229.72" y="352.5" as="sourcePoint" />
            <mxPoint x="229.72" y="320" as="targetPoint" />
          </mxGeometry>
        </mxCell>
        <mxCell id="5pZcS1v5Iqv0BgUDrNm1-16" value="y" style="edgeLabel;html=1;align=center;verticalAlign=middle;resizable=0;points=[];" parent="5pZcS1v5Iqv0BgUDrNm1-7" vertex="1" connectable="0">
          <mxGeometry x="0.1179" y="1" relative="1" as="geometry">
            <mxPoint as="offset" />
          </mxGeometry>
        </mxCell>
        <mxCell id="5pZcS1v5Iqv0BgUDrNm1-8" value="" style="endArrow=classic;html=1;rounded=0;" parent="1" edge="1">
          <mxGeometry width="50" height="50" relative="1" as="geometry">
            <mxPoint x="240" y="360" as="sourcePoint" />
            <mxPoint x="270" y="360" as="targetPoint" />
          </mxGeometry>
        </mxCell>
        <mxCell id="5pZcS1v5Iqv0BgUDrNm1-17" value="x" style="edgeLabel;html=1;align=center;verticalAlign=middle;resizable=0;points=[];" parent="5pZcS1v5Iqv0BgUDrNm1-8" vertex="1" connectable="0">
          <mxGeometry x="-0.2889" y="-2" relative="1" as="geometry">
            <mxPoint as="offset" />
          </mxGeometry>
        </mxCell>
        <mxCell id="5pZcS1v5Iqv0BgUDrNm1-14" value="" style="verticalLabelPosition=bottom;shadow=0;dashed=0;align=center;html=1;verticalAlign=top;shape=mxgraph.electrical.rot_mech.verticalLabelPosition=bottom;shadow=0;dashed=0;align=center;fillColor=strokeColor;html=1;verticalAlign=top;strokeWidth=1;shape=mxgraph.electrical.rot_mech.rotation;rotation=60;" parent="1" vertex="1">
          <mxGeometry x="200" y="355" width="35" height="26.54" as="geometry" />
        </mxCell>
        <UserObject label="&lt;font style=&quot;font-size: 11px;&quot;&gt;z&lt;/font&gt;" placeholders="1" name="Variable" id="5pZcS1v5Iqv0BgUDrNm1-19">
          <mxCell style="text;html=1;strokeColor=none;fillColor=none;align=center;verticalAlign=middle;whiteSpace=wrap;overflow=hidden;" parent="1" vertex="1">
            <mxGeometry x="195" y="365" width="15" height="20" as="geometry" />
          </mxCell>
        </UserObject>
        <mxCell id="TAA1tCsh-SUOAhMsvihb-1" value="" style="endArrow=classic;html=1;rounded=0;strokeWidth=2;startArrow=none;startFill=0;endFill=1;" edge="1" parent="1">
          <mxGeometry width="50" height="50" relative="1" as="geometry">
            <mxPoint x="260" y="370" as="sourcePoint" />
            <mxPoint x="480" y="370" as="targetPoint" />
          </mxGeometry>
        </mxCell>
        <mxCell id="TAA1tCsh-SUOAhMsvihb-2" value="" style="endArrow=classic;html=1;rounded=0;strokeWidth=2;" edge="1" parent="1">
          <mxGeometry width="50" height="50" relative="1" as="geometry">
            <mxPoint x="270" y="380" as="sourcePoint" />
            <mxPoint x="270" y="160" as="targetPoint" />
          </mxGeometry>
        </mxCell>
        <mxCell id="TAA1tCsh-SUOAhMsvihb-5" value="&lt;font style=&quot;font-size: 11px;&quot;&gt;drive-richting&lt;/font&gt;" style="text;html=1;align=center;verticalAlign=middle;whiteSpace=wrap;rounded=0;" vertex="1" parent="1">
          <mxGeometry x="350" y="370" width="80" height="20" as="geometry" />
        </mxCell>
        <mxCell id="TAA1tCsh-SUOAhMsvihb-6" value="&lt;font style=&quot;font-size: 11px;&quot;&gt;sense-richting&lt;/font&gt;" style="text;html=1;align=center;verticalAlign=middle;whiteSpace=wrap;rounded=0;rotation=-90;" vertex="1" parent="1">
          <mxGeometry x="220" y="245" width="80" height="20" as="geometry" />
        </mxCell>
      </root>
    </mxGraphModel>
  </diagram>
</mxfile>
